<svg width="420" height="354" viewBox="0 0 420 354" fill="none" xmlns="http://www.w3.org/2000/svg">
<path fill-rule="evenodd" clip-rule="evenodd" d="M227.671 27C189.226 27 153.891 40.2655 125.99 62.4597H80.8974C75.0389 62.4597 70.2455 67.2468 70.2455 73.0977C70.2455 78.9485 75.0389 83.7356 80.8974 83.7356H103.847H110.571C116.43 83.7356 121.223 88.5226 121.223 94.3735C121.223 97.2954 120.023 99.962 118.092 101.884C116.167 103.813 113.497 105.011 110.571 105.011H96.2241H88.3019H49.6519C43.7933 105.011 39 109.798 39 115.649C39 121.5 43.7933 126.287 49.6519 126.287H77.3212C68.9687 145.891 64.3423 167.461 64.3423 190.115C64.3423 198.334 64.953 206.412 66.1247 214.305C66.6147 217.603 67.2041 220.873 67.8929 224.106C87.9894 221.036 109.307 218.568 131.563 216.766L133.239 218.291L134.815 216.511C161.551 214.433 189.616 213.327 218.56 213.327C280.057 213.327 337.606 218.319 386.81 227C388.706 218.788 389.985 210.341 390.588 201.703C390.865 197.873 391 194.008 391 190.115C391 100.026 317.878 27 227.671 27" fill="#F1F2F7"/>
<path fill-rule="evenodd" clip-rule="evenodd" d="M17.2236 104H10.7764C4.84939 104 0 108.95 0 115C0 121.05 4.84939 126 10.7764 126H17.2236C23.1506 126 28 121.05 28 115C28 108.95 23.1506 104 17.2236 104" fill="#F1F2F7"/>
<mask id="mask0_375_3043" style="mask-type:luminance" maskUnits="userSpaceOnUse" x="67" y="213" width="353" height="141">
<path fill-rule="evenodd" clip-rule="evenodd" d="M420 213.86V353.404H243.741H67.4824V213.86H420V213.86Z" fill="white"/>
</mask>
<g mask="url(#mask0_375_3043)">
<path fill-rule="evenodd" clip-rule="evenodd" d="M420 267.811C420 273.647 415.212 278.422 409.36 278.422H341.395C338.472 278.422 335.806 279.617 333.883 281.541C331.954 283.458 330.755 286.118 330.755 289.032C330.755 294.868 335.543 299.643 341.395 299.643H354.022C356.944 299.643 359.612 300.839 361.534 302.763C363.464 304.68 364.663 307.339 364.663 310.254C364.663 316.09 359.875 320.864 354.022 320.864H324.988C297.712 341.293 263.82 353.404 227.089 353.404C148.641 353.404 83.1239 298.193 67.4824 224.612C87.5574 221.549 108.852 219.087 131.084 217.291L132.757 218.811L134.333 217.036C161.04 214.963 189.074 213.86 217.988 213.86C279.418 213.86 336.905 218.84 386.056 227.498C383.667 237.812 380.29 247.743 376.034 257.201H409.36C412.289 257.201 414.942 258.396 416.872 260.32C418.801 262.237 420 264.897 420 267.811" fill="#E8EBF2"/>
</g>
<path fill-rule="evenodd" clip-rule="evenodd" d="M134 216L132.545 218L131 216.287C131.995 216.183 132.998 216.088 134 216" fill="#F1F2F7"/>
<path fill-rule="evenodd" clip-rule="evenodd" d="M286 270.5C286 273.538 258.913 276 225.5 276C192.086 276 165 273.538 165 270.5C165 267.463 192.086 265 225.5 265C258.913 265 286 267.463 286 270.5" fill="#D8DBEA"/>
<path fill-rule="evenodd" clip-rule="evenodd" d="M386 321V321C379.95 321 375 316.05 375 310C375 303.95 379.95 299 386 299C392.05 299 397 303.95 397 310C397 316.05 392.05 321 386 321" fill="#E1E3EF"/>
<path d="M298.954 48.6416H258.519V36.4808C258.519 16.3751 242.183 0 222.129 0C217.884 0 213.799 0.770191 209.999 2.14838C206.198 0.770165 202.114 0 197.868 0C177.813 0 161.478 16.3764 161.478 36.4808V48.6416H121.043C118.82 48.6416 117 50.4657 117 52.6951V210.786C117 219.744 124.238 227 133.174 227H286.826C295.762 227 303 219.744 303 210.786V52.6951C303 50.4657 301.178 48.6416 298.954 48.6416ZM222.127 8.10585C237.734 8.10585 250.432 20.8339 250.432 36.4821V48.6429H234.258V36.4821C234.258 25.0512 229.002 14.8767 220.794 8.18886C221.238 8.14833 221.682 8.10585 222.127 8.10585ZM209.996 10.8623C219.539 15.4427 226.17 25.1713 226.17 36.4808V48.6416H193.822V36.4808C193.822 25.1713 200.454 15.4427 209.996 10.8623ZM169.561 36.4808C169.561 20.8342 182.258 8.10455 197.867 8.10455C198.312 8.10455 198.757 8.14508 199.201 8.18562C190.993 14.8739 185.737 25.0485 185.737 36.4789V48.6396H169.563L169.561 36.4808ZM270.647 210.786C270.647 215.245 267.008 218.893 262.56 218.893H133.169C128.721 218.893 125.082 215.245 125.082 210.786V56.75H161.472V70.2891C159.288 71.7483 157.873 74.221 157.873 77.0181C157.873 81.4772 161.472 85.1253 165.96 85.1253C170.448 85.1253 174.047 81.4772 174.047 77.0181C174.047 73.8562 172.187 71.1405 169.559 69.8029V56.7505H226.167V70.0462C223.782 71.4245 222.124 74.0186 222.124 77.0184C222.124 81.4774 225.763 85.1255 230.211 85.1255C234.659 85.1255 238.298 81.4774 238.298 77.0184C238.298 74.0189 236.64 71.4246 234.254 70.0462V56.7505H270.644L270.647 210.786Z" fill="#005D67"/>
</svg>
